<?xml version="1.0" encoding="utf-8"?>
<!-- Generated by IcoMoon.io -->
<!DOCTYPE svg PUBLIC "-//W3C//DTD SVG 1.1//EN" "http://www.w3.org/Graphics/SVG/1.1/DTD/svg11.dtd">
<svg version="1.1" xmlns="http://www.w3.org/2000/svg" xmlns:xlink="http://www.w3.org/1999/xlink" width="10" height="10" viewBox="0 0 10 10">
<g id="icomoon-ignore">
	<line stroke-width="1" x1="" y1="" x2="" y2="" stroke="#449FDB" opacity=""></line>
</g>
	<path d="M9.119 5.959c-0.525-0.909-0.209-2.073 0.705-2.602l-0.983-1.702c-0.281 0.165-0.607 0.259-0.956 0.259-1.050 0-1.901-0.857-1.901-1.914h-1.965c0.003 0.326-0.079 0.657-0.253 0.959-0.525 0.909-1.691 1.218-2.606 0.691l-0.983 1.702c0.283 0.161 0.528 0.396 0.702 0.698 0.524 0.907 0.21 2.070-0.7 2.6l0.983 1.702c0.28-0.163 0.605-0.256 0.951-0.256 1.047 0 1.896 0.851 1.901 1.904h1.965c-0.001-0.323 0.081-0.65 0.254-0.949 0.524-0.907 1.687-1.217 2.602-0.693l0.983-1.702c-0.281-0.161-0.524-0.395-0.698-0.696zM5 7.025c-1.118 0-2.025-0.906-2.025-2.025s0.907-2.025 2.025-2.025c1.118 0 2.025 0.907 2.025 2.025s-0.906 2.025-2.025 2.025z" fill="#ea6254"></path>
</svg>
