<?xml version="1.0" encoding="utf-8"?>
<!-- Generator: Adobe Illustrator 18.0.0, SVG Export Plug-In . SVG Version: 6.00 Build 0)  -->
<!DOCTYPE svg PUBLIC "-//W3C//DTD SVG 1.1//EN" "http://www.w3.org/Graphics/SVG/1.1/DTD/svg11.dtd">
<svg version="1.1" id="Layer_1" xmlns="http://www.w3.org/2000/svg" xmlns:xlink="http://www.w3.org/1999/xlink" x="0px" y="0px"
	 viewBox="0 0 30.5 22.4" enable-background="new 0 0 30.5 22.4" xml:space="preserve">
<path fill-rule="evenodd" clip-rule="evenodd" fill="#FFF" d="M29.4,14.6h-2.2c-0.6,0-1.1-0.5-1.1-1.1c0-0.6,0.5-1.1,1.1-1.1h2.2
	c0.6,0,1.1,0.5,1.1,1.1C30.5,14.1,30,14.6,29.4,14.6z M25,7.1c-0.4,0.4-1.1,0.4-1.6,0C23,6.7,23,6,23.4,5.5L25,3.9
	c0.4-0.4,1.1-0.4,1.6,0c0.4,0.4,0.4,1.1,0,1.6L25,7.1z M23.3,15.8L23.3,15.8c0.5,0.6,0.9,1.3,1.2,2.1h-2.5c-0.8-1.3-2.2-2.2-3.9-2.2
	c-0.9,0-1.7,0.3-2.4,0.7c-0.7-3-3.3-5.2-6.5-5.2c-3.7,0-6.7,3-6.7,6.7H0.3c0-4.9,4-9,9-9c0.9,0,1.7,0.1,2.5,0.4
	c1.2-1.6,3.1-2.6,5.3-2.6c3.7,0,6.7,3,6.7,6.7C23.8,14.3,23.6,15.1,23.3,15.8z M17.1,9c-1.2,0-2.4,0.5-3.2,1.3
	c1.3,0.8,2.4,1.9,3.2,3.3c0.4-0.1,0.7-0.1,1.1-0.1c1.2,0,2.3,0.3,3.3,0.9l0,0c0.1-0.3,0.1-0.6,0.1-0.9C21.5,11,19.5,9,17.1,9z
	 M17.1,4.5c-0.6,0-1.1-0.5-1.1-1.1V1.1c0-0.6,0.5-1.1,1.1-1.1c0.6,0,1.1,0.5,1.1,1.1v2.2C18.2,4,17.7,4.5,17.1,4.5z M9.1,7.1
	L7.6,5.5c-0.4-0.4-0.4-1.1,0-1.6c0.4-0.4,1.1-0.4,1.6,0l1.6,1.6c0.4,0.4,0.4,1.1,0,1.6C10.3,7.5,9.6,7.5,9.1,7.1z M1.4,20.2h22.4
	c0.6,0,1.1,0.5,1.1,1.1c0,0.6-0.5,1.1-1.1,1.1H1.4c-0.6,0-1.1-0.5-1.1-1.1C0.3,20.7,0.8,20.2,1.4,20.2z"/>
</svg>
