<?xml version="1.0" encoding="utf-8"?>
<!-- Generator: Adobe Illustrator 18.0.0, SVG Export Plug-In . SVG Version: 6.00 Build 0)  -->
<!DOCTYPE svg PUBLIC "-//W3C//DTD SVG 1.1//EN" "http://www.w3.org/Graphics/SVG/1.1/DTD/svg11.dtd">
<svg version="1.1" id="Layer_1" xmlns="http://www.w3.org/2000/svg" xmlns:xlink="http://www.w3.org/1999/xlink" x="0px" y="0px"
	 viewBox="0 0 16.8 16.8" enable-background="new 0 0 16.8 16.8" xml:space="preserve">
<path fill-rule="evenodd" clip-rule="evenodd" fill="#FFF" d="M16.7,6.9C16.2,6.9,15.8,7,15.4,7c-3.1,0-5.6-2.5-5.6-5.6
	c0-0.4,0.1-0.8,0.1-1.3C9.4,0.1,8.9,0,8.4,0C3.8,0,0,3.8,0,8.4c0,4.6,3.8,8.4,8.4,8.4c4.6,0,8.4-3.8,8.4-8.4
	C16.8,7.9,16.7,7.4,16.7,6.9z M8.4,14c-3.1,0-5.6-2.5-5.6-5.6c0-2.7,1.9-4.9,4.3-5.5c0.6,3.4,3.3,6.1,6.7,6.7
	C13.3,12.1,11.1,14,8.4,14z"/>
</svg>
