<?xml version="1.0" encoding="utf-8"?>
<!-- Generator: Adobe Illustrator 18.0.0, SVG Export Plug-In . SVG Version: 6.00 Build 0)  -->
<!DOCTYPE svg PUBLIC "-//W3C//DTD SVG 1.1//EN" "http://www.w3.org/Graphics/SVG/1.1/DTD/svg11.dtd">
<svg version="1.1" id="Layer_1" xmlns="http://www.w3.org/2000/svg" xmlns:xlink="http://www.w3.org/1999/xlink" x="0px" y="0px"
	 viewBox="0 0 26.9 26.9" enable-background="new 0 0 26.9 26.9" xml:space="preserve">
<path fill-rule="evenodd" fill="#FFF" clip-rule="evenodd" d="M25.8,14.6h-2.2c-0.6,0-1.1-0.5-1.1-1.1c0-0.6,0.5-1.1,1.1-1.1h2.2
	c0.6,0,1.1,0.5,1.1,1.1C26.9,14.1,26.4,14.6,25.8,14.6z M21.4,7.1c-0.4,0.4-1.1,0.4-1.6,0c-0.4-0.4-0.4-1.1,0-1.6l1.6-1.6
	c0.4-0.4,1.1-0.4,1.6,0c0.4,0.4,0.4,1.1,0,1.6L21.4,7.1z M13.4,20.2c-3.7,0-6.7-3-6.7-6.7c0-3.7,3-6.7,6.7-6.7s6.7,3,6.7,6.7
	C20.2,17.2,17.2,20.2,13.4,20.2z M13.4,9C11,9,9,11,9,13.4c0,2.5,2,4.5,4.5,4.5s4.5-2,4.5-4.5C17.9,11,15.9,9,13.4,9z M13.4,4.5
	c-0.6,0-1.1-0.5-1.1-1.1V1.1c0-0.6,0.5-1.1,1.1-1.1c0.6,0,1.1,0.5,1.1,1.1v2.2C14.6,4,14.1,4.5,13.4,4.5z M5.5,7.1L3.9,5.5
	c-0.4-0.4-0.4-1.1,0-1.6c0.4-0.4,1.1-0.4,1.6,0l1.6,1.6c0.4,0.4,0.4,1.1,0,1.6C6.7,7.5,6,7.5,5.5,7.1z M4.5,13.4
	c0,0.6-0.5,1.1-1.1,1.1H1.1c-0.6,0-1.1-0.5-1.1-1.1c0-0.6,0.5-1.1,1.1-1.1h2.2C4,12.3,4.5,12.8,4.5,13.4z M5.5,19.8
	c0.4-0.4,1.1-0.4,1.6,0c0.4,0.4,0.4,1.1,0,1.6l-1.6,1.6c-0.4,0.4-1.1,0.4-1.6,0c-0.4-0.4-0.4-1.1,0-1.6L5.5,19.8z M13.4,22.4
	c0.6,0,1.1,0.5,1.1,1.1v2.2c0,0.6-0.5,1.1-1.1,1.1c-0.6,0-1.1-0.5-1.1-1.1v-2.2C12.3,22.9,12.8,22.4,13.4,22.4z M21.4,19.8l1.6,1.6
	c0.4,0.4,0.4,1.1,0,1.6c-0.4,0.4-1.1,0.4-1.6,0l-1.6-1.6c-0.4-0.4-0.4-1.1,0-1.6C20.2,19.3,20.9,19.3,21.4,19.8z"/>
</svg>
